<svg height="448pt" viewBox="-32 0 448 448" width="448pt" xmlns="http://www.w3.org/2000/svg"><path d="m384 240h-384v160h384zm-304 72h32c13.253906 0 24 10.746094 24 24v32c0 13.253906-10.746094 24-24 24h-48c-4.417969 0-8-3.582031-8-8s3.582031-8 8-8h48c4.417969 0 8-3.582031 8-8v-32c0-4.417969-3.582031-8-8-8h-32c-13.253906 0-24-10.746094-24-24v-32c0-13.253906 10.746094-24 24-24h48c4.417969 0 8 3.582031 8 8s-3.582031 8-8 8h-48c-4.417969 0-8 3.582031-8 8v32c0 4.417969 3.582031 8 8 8zm151.761719-54.0625-32 128c-.894531 3.558594-4.09375 6.054688-7.761719 6.054688s-6.867188-2.496094-7.761719-6.054688l-32-128c-.765625-2.800781.042969-5.796875 2.113281-7.828125 2.074219-2.03125 5.082032-2.785156 7.867188-1.960937 2.785156.820312 4.902344 3.085937 5.542969 5.914062l24.238281 96.953125 24.238281-96.953125c.640625-2.828125 2.757813-5.09375 5.542969-5.914062 2.785156-.824219 5.792969-.070313 7.867188 1.960937 2.070312 2.03125 2.878906 5.027344 2.113281 7.828125zm96.238281 30.0625c0 4.417969-3.582031 8-8 8s-8-3.582031-8-8v-16c0-4.417969-3.582031-8-8-8h-32c-4.417969 0-8 3.582031-8 8v96c0 4.417969 3.582031 8 8 8h32c4.417969 0 8-3.582031 8-8v-40h-24c-4.417969 0-8-3.582031-8-8s3.582031-8 8-8h32c4.417969 0 8 3.582031 8 8v48c0 13.253906-10.746094 24-24 24h-32c-13.253906 0-24-10.746094-24-24v-96c0-13.253906 10.746094-24 24-24h32c13.253906 0 24 10.746094 24 24zm0 0"/><path d="m384 416h-384v8c0 13.253906 10.746094 24 24 24h336c13.253906 0 24-10.746094 24-24zm0 0"/><path d="m336 48h36.6875l-36.6875-36.6875zm0 0"/><path d="m384 64h-56c-4.417969 0-8-3.582031-8-8v-56h-296c-13.253906 0-24 10.746094-24 24v200h384zm0 0"/></svg>